<svg width="134" height="44" viewBox="0 0 134 44" fill="none" xmlns="http://www.w3.org/2000/svg">
<circle cx="11.8049" cy="22" r="6.43902" fill="white"/>
<path fill-rule="evenodd" clip-rule="evenodd" d="M20.7737 26.8519C21.5558 25.4091 22 23.7564 22 22C22 16.3694 17.4355 11.8049 11.8049 11.8049C9.81349 11.8049 7.95545 12.3758 6.38553 13.363C6.28388 12.8118 6.04186 12.3098 5.69792 11.8955C7.47967 10.8163 9.56973 10.1951 11.8049 10.1951C18.3245 10.1951 23.6098 15.4804 23.6098 22C23.6098 23.9634 23.1304 25.8148 22.2824 27.4437C21.8487 27.1281 21.3332 26.9183 20.7737 26.8519ZM17.2244 30.637C15.6544 31.6241 13.7963 32.1951 11.8049 32.1951C6.17427 32.1951 1.60976 27.6306 1.60976 22C1.60976 20.2433 2.05405 18.5904 2.8364 17.1475C2.27687 17.0812 1.76132 16.8713 1.3276 16.5558C0.479423 18.1848 0 20.0364 0 22C0 28.5197 5.28522 33.8049 11.8049 33.8049C14.0402 33.8049 16.1304 33.1836 17.9122 32.1043C17.5682 31.69 17.3261 31.1881 17.2244 30.637Z" fill="white"/>
<circle cx="3.21897" cy="13.9504" r="2.14634" fill="white"/>
<circle cx="20.3902" cy="30.0488" r="2.14634" fill="white"/>
<path d="M49.6256 9.944C43.2456 9.944 38.0976 15.092 38.0976 21.472C38.0976 27.808 43.2456 33 49.6256 33C55.9616 33 61.1096 27.808 61.1096 21.472C61.1096 15.092 55.9616 9.944 49.6256 9.944ZM49.6256 28.82C45.5336 28.82 42.2336 25.52 42.2336 21.472C42.2336 17.38 45.5336 14.124 49.6256 14.124C53.6736 14.124 56.9736 17.38 56.9736 21.472C56.9736 25.52 53.6736 28.82 49.6256 28.82ZM78.4315 27.5C80.0155 25.652 81.0275 23.232 81.0275 20.548C81.0275 14.74 76.2755 9.988 70.4235 9.988H68.8835H67.6515H64.3515V33H68.8835V31.152H70.4235C72.1395 31.152 73.7675 30.756 75.1755 30.008L76.9355 33H81.6435L78.4315 27.5ZM68.8835 27.016V14.124H70.4235C73.9435 14.124 76.8475 17.028 76.8475 20.548C76.8475 24.112 73.9435 27.016 70.4235 27.016H68.8835ZM97.3374 19.272C97.7774 18.392 98.0414 17.424 98.0414 16.412C98.0414 12.848 95.1374 9.988 91.5734 9.988H89.6374H89.1534H85.1054V33H87.8774H94.3014C98.2614 33 101.517 29.788 101.517 25.784C101.517 22.88 99.8014 20.416 97.3374 19.272ZM89.6374 17.336V15.488V14.256H91.5734C92.7614 14.256 93.7294 15.224 93.7294 16.412C93.7294 17.6 92.7614 18.568 91.5734 18.568H89.6374V17.336ZM94.3014 28.688H89.6374V22.88H94.3014C95.8854 22.88 97.2054 24.156 97.2054 25.784C97.2054 27.412 95.8854 28.688 94.3014 28.688ZM107.985 33V9.988H103.453V33H107.985ZM128.797 9.944H110.801V14.476H117.533V33H122.065V14.476H128.797V9.944Z" fill="white"/>
</svg>
